# xmcd
#
# Track frame offsets:
#	150
#	18404
#	29551
#	48741
#	65120
#	77764
#	87267
#	99850
#	119833
#	134505
#	149779
#	161199
#	177580
#	192685
#	206632
#
# Disc length: 2922 seconds
#
# Revision: 1
# Processed by: cddbd v1.5.2PL0 Copyright (c) Steve Scherf et al.
# Submitted via: audiograbber 1.83.01
#
DISCID=f20b680f
DTITLE=Connie Kis Andersen - Once Again Connie Kis Andersen
DYEAR=2008
DGENRE=Country
TTITLE0=Mere Male
TTITLE1=Lounge Lizard
TTITLE2=You´ve Lost That Loving Feeling
TTITLE3=Once Again
TTITLE4=You´re So Hot
TTITLE5=Honky Tonk Blues
TTITLE6=Happy Day
TTITLE7=Wicked Game
TTITLE8=Blue River Of Tears
TTITLE9=Trust In Me
TTITLE10=So Tired
TTITLE11=What People Say
TTITLE12=Bitter
TTITLE13=Love In The Making
TTITLE14=Let´s Work Together
EXTD=
EXTT0=
EXTT1=
EXTT2=
EXTT3=
EXTT4=
EXTT5=
EXTT6=
EXTT7=
EXTT8=
EXTT9=
EXTT10=
EXTT11=
EXTT12=
EXTT13=
EXTT14=
PLAYORDER=
